<svg width="22" height="18" viewBox="0 0 22 18" fill="none" xmlns="http://www.w3.org/2000/svg">
<rect width="22" height="18" fill="#E5E5E5"/>
<g id="Real-Estate Landing Page v2" clip-path="url(#clip0_0_1)">
<rect width="1440" height="4324" transform="translate(-284 -2370)" fill="white"/>
<g id="Feature 01">
<g id="Feature 01_2">
<rect id="bg" x="-284" y="-577" width="1440" height="727" fill="#F5FAFE"/>
<g id="cards">
<g id="card 01">
<g id="Rectangle 65" filter="url(#filter0_d_0_1)">
<rect x="-119" y="-317" width="350" height="357" rx="12" fill="white"/>
</g>
<g id="bed and both">
<g id="bath">
<g id="Group 458">
<path id="Rectangle 75 (Stroke)" fill-rule="evenodd" clip-rule="evenodd" d="M2.57898 8.21582L3.38907 14.7319C3.42489 15.02 3.66972 15.2363 3.96003 15.2363H18.6509C18.9384 15.2363 19.1817 15.0241 19.2209 14.7394L20.1187 8.21582H2.57898ZM2.27635 6.37354C1.32944 6.37354 0.596612 7.20312 0.713433 8.14279L1.56086 14.9592C1.71136 16.1698 2.74014 17.0786 3.96003 17.0786H18.6509C19.8588 17.0786 20.8813 16.1871 21.046 14.9905L21.9856 8.16321C22.1158 7.21695 21.3805 6.37354 20.4253 6.37354H2.27635Z" fill="#0C8BFF"/>
<path id="Vector 14 (Stroke)" fill-rule="evenodd" clip-rule="evenodd" d="M10.4636 2.35155C9.77802 2.73478 9.4873 3.20201 9.44971 3.54734L9.32711 4.6737L8.24949 4.32378C7.29285 4.01315 6.67799 4.03055 6.291 4.14691C5.92507 4.25695 5.66406 4.48466 5.46061 4.82558C5.00759 5.58476 4.92786 6.75045 4.92786 7.69597L3.08557 7.69597C3.08557 6.77887 3.13515 5.12737 3.87859 3.88153C4.27338 3.21995 4.8774 2.6482 5.76051 2.38266C6.39802 2.19096 7.12093 2.17697 7.93059 2.33734C8.28448 1.66381 8.88858 1.12138 9.56472 0.743439C10.5737 0.179432 11.8758 -0.105262 13.2351 0.03571C16.0318 0.325772 18.9285 2.384 20.257 7.14624L18.4825 7.64129C17.3207 3.47687 14.9622 2.06701 13.045 1.86817C12.0473 1.76469 11.1277 1.98034 10.4636 2.35155Z" fill="#0C8BFF"/>
</g>
</g>
</g>
</g>
</g>
</g>
</g>
</g>
<defs>
<filter id="filter0_d_0_1" x="-153" y="-317" width="418" height="456" filterUnits="userSpaceOnUse" color-interpolation-filters="sRGB">
<feFlood flood-opacity="0" result="BackgroundImageFix"/>
<feColorMatrix in="SourceAlpha" type="matrix" values="0 0 0 0 0 0 0 0 0 0 0 0 0 0 0 0 0 0 127 0" result="hardAlpha"/>
<feMorphology radius="46" operator="erode" in="SourceAlpha" result="effect1_dropShadow_0_1"/>
<feOffset dy="65"/>
<feGaussianBlur stdDeviation="40"/>
<feColorMatrix type="matrix" values="0 0 0 0 0.885625 0 0 0 0 0.935278 0 0 0 0 0.975 0 0 0 0.6 0"/>
<feBlend mode="normal" in2="BackgroundImageFix" result="effect1_dropShadow_0_1"/>
<feBlend mode="normal" in="SourceGraphic" in2="effect1_dropShadow_0_1" result="shape"/>
</filter>
<clipPath id="clip0_0_1">
<rect width="1440" height="4324" fill="white" transform="translate(-284 -2370)"/>
</clipPath>
</defs>
</svg>
